<svg xmlns="http://www.w3.org/2000/svg" viewBox="0 0 800 450">
  <defs><linearGradient id="g" x1="0" x2="1"><stop stop-color="#172554"/><stop offset="1" stop-color="#3b82f6"/></linearGradient></defs>
  <rect width="800" height="450" fill="url(#g)"/>
  <circle cx="230" cy="120" r="58" fill="#f2c9aa"/>
  <path d="M180 310c10-100 75-120 100-120s90 30 110 120" fill="#111827"/>
  <path d="M250 178c-40 10-60 60-70 132h85z" fill="#1f2937"/>
  <path d="M285 185c50 20 82 65 105 125h-90z" fill="#111827"/>
  <path d="M205 94c20-68 120-55 130 10-50-25-90-20-130-10z" fill="#111827"/>
  <circle cx="190" cy="125" r="18" fill="#0f172a"/><circle cx="323" cy="125" r="18" fill="#0f172a"/>
  <path d="M200 125h120" stroke="#0f172a" stroke-width="10"/>
  <text x="420" y="165" font-family="Arial" font-size="48" font-weight="700" fill="#dbeafe">L33T</text>
  <text x="420" y="220" font-family="Arial" font-size="30" fill="#bfdbfe">Leather Jacket</text>
</svg>
